<svg width="18" height="20" viewBox="0 0 18 20" fill="none" xmlns="http://www.w3.org/2000/svg">
<path d="M15.75 0.25H2.25C1.85218 0.25 1.47064 0.408035 1.18934 0.68934C0.908035 0.970644 0.75 1.35218 0.75 1.75V18.25C0.75 18.6478 0.908035 19.0294 1.18934 19.3107C1.47064 19.592 1.85218 19.75 2.25 19.75H15.75C16.1478 19.75 16.5294 19.592 16.8107 19.3107C17.092 19.0294 17.25 18.6478 17.25 18.25V1.75C17.25 1.35218 17.092 0.970644 16.8107 0.68934C16.5294 0.408035 16.1478 0.25 15.75 0.25ZM15.75 18.25H2.25V1.75H15.75V18.25ZM6 5.125C6 5.3475 5.93402 5.56501 5.8104 5.75002C5.68679 5.93502 5.51109 6.07922 5.30552 6.16436C5.09995 6.24951 4.87375 6.27179 4.65552 6.22838C4.43729 6.18498 4.23684 6.07783 4.0795 5.9205C3.92217 5.76316 3.81502 5.56271 3.77162 5.34448C3.72821 5.12625 3.75049 4.90005 3.83564 4.69448C3.92078 4.48891 4.06498 4.31321 4.24998 4.1896C4.43499 4.06598 4.6525 4 4.875 4C5.17337 4 5.45952 4.11853 5.6705 4.3295C5.88147 4.54048 6 4.82663 6 5.125ZM6 14.875C6 15.0975 5.93402 15.315 5.8104 15.5C5.68679 15.685 5.51109 15.8292 5.30552 15.9144C5.09995 15.9995 4.87375 16.0218 4.65552 15.9784C4.43729 15.935 4.23684 15.8278 4.0795 15.6705C3.92217 15.5132 3.81502 15.3127 3.77162 15.0945C3.72821 14.8762 3.75049 14.65 3.83564 14.4445C3.92078 14.2389 4.06498 14.0632 4.24998 13.9396C4.43499 13.816 4.6525 13.75 4.875 13.75C5.17337 13.75 5.45952 13.8685 5.6705 14.0795C5.88147 14.2905 6 14.5766 6 14.875ZM6 10C6 10.2225 5.93402 10.44 5.8104 10.625C5.68679 10.81 5.51109 10.9542 5.30552 11.0394C5.09995 11.1245 4.87375 11.1468 4.65552 11.1034C4.43729 11.06 4.23684 10.9528 4.0795 10.7955C3.92217 10.6382 3.81502 10.4377 3.77162 10.2195C3.72821 10.0012 3.75049 9.77505 3.83564 9.56948C3.92078 9.36391 4.06498 9.18821 4.24998 9.0646C4.43499 8.94098 4.6525 8.875 4.875 8.875C5.17337 8.875 5.45952 8.99353 5.6705 9.2045C5.88147 9.41548 6 9.70163 6 10Z" fill="#A2A2A2"/>
</svg>
