<svg width="17" height="17" viewBox="0 0 17 17" fill="none" xmlns="http://www.w3.org/2000/svg">
<path d="M1 2.16521V6.16521H5" stroke="#333333" stroke-width="1.5" stroke-linecap="round" stroke-linejoin="round"/>
<path d="M15.667 14.8318V10.8318H11.667" stroke="#333333" stroke-width="1.5" stroke-linecap="round" stroke-linejoin="round"/>
<path d="M13.2863 5.74873C13.4245 6.13922 13.853 6.34375 14.2435 6.20557C14.634 6.06739 14.8385 5.63882 14.7004 5.24834L13.2863 5.74873ZM4.09333 3.25854L4.60692 3.8051C4.61263 3.79973 4.61826 3.79428 4.6238 3.78873L4.09333 3.25854ZM0.486418 5.61864C0.184558 5.90228 0.169791 6.37693 0.453435 6.67879C0.737079 6.98065 1.21172 6.99541 1.51358 6.71177L0.486418 5.61864ZM16.1798 11.3784C16.4816 11.0948 16.4964 10.6201 16.2127 10.3183C15.9291 10.0164 15.4545 10.0016 15.1526 10.2853L16.1798 11.3784ZM12.5729 13.7385L12.0593 13.1919C12.0536 13.1973 12.0479 13.2028 12.0424 13.2083L12.5729 13.7385ZM3.37989 11.2483C3.24171 10.8578 2.81314 10.6533 2.42265 10.7915C2.03217 10.9297 1.82763 11.3582 1.96581 11.7487L3.37989 11.2483ZM14.7004 5.24834C13.9272 3.06345 12.0872 1.428 9.82666 0.916533L9.49563 2.37955C11.2538 2.77736 12.6849 4.04937 13.2863 5.74873L14.7004 5.24834ZM9.82666 0.916533C7.56614 0.405063 5.20129 1.0891 3.56287 2.72834L4.6238 3.78873C5.89812 2.51377 7.73745 1.98174 9.49563 2.37955L9.82666 0.916533ZM3.57975 2.71197L0.486418 5.61864L1.51358 6.71177L4.60692 3.8051L3.57975 2.71197ZM15.1526 10.2853L12.0593 13.1919L13.0864 14.2851L16.1798 11.3784L15.1526 10.2853ZM12.0424 13.2083C10.7681 14.4833 8.92873 15.0153 7.17056 14.6175L6.83953 16.0805C9.10004 16.592 11.4649 15.908 13.1033 14.2687L12.0424 13.2083ZM7.17056 14.6175C5.41238 14.2197 3.98124 12.9477 3.37989 11.2483L1.96581 11.7487C2.73898 13.9336 4.57901 15.569 6.83953 16.0805L7.17056 14.6175Z" fill="#333333"/>
</svg>
